<svg preserveAspectRatio="none" width="100%" height="100%" overflow="visible" style="display: block;" viewBox="0 0 841.986 199.44" fill="none" xmlns="http://www.w3.org/2000/svg">
<path id="Subtract" d="M666.445 151.721C664.971 156.118 663.099 160.299 660.825 164.262C654.362 175.342 645.22 184.02 633.402 190.299C621.768 196.393 608.195 199.44 592.683 199.44C577.356 199.44 563.783 196.393 551.964 190.299C540.33 184.02 531.281 175.342 524.818 164.262C522.544 160.299 520.672 156.118 519.198 151.721H666.445ZM67.2522 151.721L59.0041 181.786L55.9778 192.516C55.4237 194.916 53.854 196.116 51.2688 196.116H3.90257C0.578584 196.116 -0.622307 194.547 0.301012 191.407L12.7805 151.721H67.2522ZM185.337 191.407C185.522 191.777 185.614 192.331 185.614 193.069C185.614 195.101 184.322 196.116 181.737 196.116H134.369C131.784 196.116 130.214 194.916 129.66 192.516L125.165 176.576L118.205 151.721H172.858L185.337 191.407ZM343.028 151.721C343.635 151.901 344.151 152.203 344.575 152.627C345.314 153.366 345.684 154.381 345.684 155.674V191.961C345.684 193.253 345.314 194.269 344.575 195.008C343.837 195.746 342.821 196.116 341.529 196.116H206.629C205.337 196.116 204.321 195.746 203.582 195.008C202.844 194.269 202.475 193.253 202.475 191.961V151.721H343.028ZM502.086 151.721C502.693 151.901 503.21 152.203 503.634 152.627C504.373 153.366 504.742 154.381 504.742 155.674V191.961C504.742 193.253 504.373 194.269 503.634 195.008C502.895 195.746 501.88 196.116 500.587 196.116H365.688C364.395 196.116 363.379 195.746 362.641 195.008C361.902 194.269 361.533 193.253 361.533 191.961V151.721H502.086ZM784.092 191.407C784.092 192.7 783.723 193.715 782.985 194.454C782.246 195.193 781.229 195.562 779.937 195.562H736.448C735.156 195.562 734.14 195.193 733.402 194.454C732.663 193.715 732.293 192.7 732.293 191.407V151.721H784.092V191.407ZM122.181 2.21582C124.581 2.21582 126.151 3.32421 126.89 5.54004L165.944 129.733H110.843C111.263 129.489 111.349 128.996 111.101 128.251L93.3733 66.2031C93.1886 65.6492 92.9115 65.3721 92.5422 65.3721C92.1729 65.3721 91.8958 65.6492 91.7112 66.2031L74.26 128.251C74.1358 128.996 74.2632 129.489 74.6399 129.733H19.6946L58.7483 5.54004C59.487 3.32418 61.0567 2.21582 63.4573 2.21582H122.181ZM250.396 2.21582C251.688 2.21589 252.704 2.58562 253.443 3.32422C254.181 4.06285 254.55 5.07856 254.55 6.37109V129.733H202.475V6.37109C202.475 5.07852 202.844 4.06286 203.582 3.32422C204.321 2.5856 205.337 2.21587 206.629 2.21582H250.396ZM409.454 2.21582C410.747 2.21589 411.763 2.58562 412.501 3.32422C413.24 4.06285 413.609 5.07856 413.609 6.37109V129.733H361.533V6.37109C361.533 5.07853 361.902 4.06286 362.641 3.32422C363.379 2.5856 364.395 2.21587 365.688 2.21582H409.454ZM592.683 0C608.195 0 621.768 3.04766 633.402 9.1416C645.22 15.2356 654.362 23.8223 660.825 34.9023C667.289 45.9822 670.52 58.7242 670.52 73.1279V125.204C670.52 126.733 670.483 128.242 670.414 129.733H618.347C618.411 128.8 618.444 127.844 618.444 126.866V72.5742C618.444 64.0798 616.044 57.3395 611.242 52.3535C606.626 47.1828 600.439 44.5977 592.683 44.5977C585.112 44.5977 578.926 47.1829 574.124 52.3535C569.508 57.3395 567.199 64.0796 567.199 72.5742V126.866C567.199 127.844 567.231 128.8 567.292 129.733H515.229C515.16 128.242 515.123 126.733 515.123 125.204V73.1279C515.123 58.7242 518.354 45.9822 524.818 34.9023C531.281 23.8224 540.33 15.2356 551.964 9.1416C563.783 3.04762 577.356 2.02241e-05 592.683 0ZM726.199 2.21582C728.6 2.21592 730.261 3.32433 731.185 5.54004L757.5 71.7432C758.054 73.0358 758.608 73.0358 759.162 71.7432L785.477 5.54004C786.4 3.32408 788.062 2.21583 790.463 2.21582H838.384C840.785 2.21582 841.986 3.13966 841.986 4.98633L841.431 7.20215L784.369 128.528C784.225 128.817 784.138 129.219 784.107 129.733H732.217L732.016 128.528L675.508 7.20215L674.954 4.98633C674.954 3.13972 676.154 2.21588 678.555 2.21582H726.199Z" fill="var(--fill-0, #E8E4DC)"/>
</svg>
