<svg preserveAspectRatio="none" width="100%" height="100%" overflow="visible" style="display: block;" viewBox="0 0 146.591 40.1515" fill="none" xmlns="http://www.w3.org/2000/svg">
<path id="Vector" fill-rule="evenodd" clip-rule="evenodd" d="M57.6741 32.6897C57.6741 32.3316 57.4288 32.0204 57.0812 31.9374C56.7337 31.8545 56.3748 32.0214 56.2137 32.3409C56.0954 32.5785 55.9697 32.8118 55.8371 33.0413C54.5388 35.2906 52.7119 37.0379 50.3564 38.2834C48.0009 39.5288 45.2651 40.1515 42.1491 40.1515C39.0702 40.1515 36.353 39.5288 33.9975 38.2834C31.642 37.0379 29.8151 35.2906 28.5167 33.0413C27.2184 30.7921 26.5693 28.1804 26.5693 25.2062V14.7222C26.5693 13.1731 26.7544 11.7195 27.125 10.3613C27.188 10.13 27.1359 9.8824 26.9851 9.69624C26.8343 9.51007 26.6033 9.40811 26.3645 9.42224C22.7028 9.42363 10.739 9.42446 10.739 9.42446C10.5535 9.42446 10.4608 9.51741 10.4608 9.70329V14.9453C10.4608 15.1312 10.5535 15.2241 10.739 15.2241H21.0328C21.2925 15.2241 21.4965 15.2985 21.6449 15.4472C21.7933 15.5959 21.8675 15.8004 21.8675 16.0606V23.3102C21.8675 23.5704 21.7933 23.7749 21.6449 23.9236C21.4965 24.0723 21.2925 24.1467 21.0328 24.1467H10.739C10.5535 24.1467 10.4608 24.2396 10.4608 24.4255V38.6458C10.4608 38.9061 10.3866 39.1106 10.2382 39.2593C10.0898 39.408 9.88578 39.4823 9.62612 39.4823H0.834636C0.574972 39.4823 0.37094 39.408 0.222561 39.2593C0.0741808 39.1106 0 38.9061 0 38.6458V1.28262C0 1.02238 0.0741808 0.817919 0.222561 0.66921C0.37094 0.520501 0.574972 0.446132 0.834636 0.446132H27.3204C27.5801 0.446132 27.7841 0.520501 27.9325 0.66921C28.0809 0.817919 28.155 1.02238 28.155 1.28262V5.12416C28.155 5.44305 28.3576 5.72663 28.6587 5.82942C28.9599 5.93222 29.293 5.83156 29.4872 5.57894C30.6756 4.03366 32.1791 2.78737 33.9975 1.84028C36.353 0.61343 39.0702 0 42.1491 0C45.2651 0 48.0009 0.61343 50.3564 1.84028C52.7119 3.06713 54.5388 4.79588 55.8371 7.02652C55.9701 7.25507 56.0964 7.48706 56.2157 7.72267C56.3776 8.04081 56.736 8.20624 57.0825 8.12278C57.429 8.03932 57.6733 7.72872 57.6733 7.37163C57.6741 4.39568 57.6741 1.28262 57.6741 1.28262C57.6741 1.02238 57.7483 0.817919 57.8967 0.66921C58.045 0.520501 58.2491 0.446132 58.5087 0.446132H75.3684C77.8908 0.446132 80.1073 0.96662 82.0177 2.00758C83.928 3.04855 85.4118 4.50777 86.469 6.38522C86.8337 7.03285 87.1354 7.71469 87.3743 8.43082C87.4765 8.73437 87.755 8.9432 88.0744 8.95584C88.3939 8.96839 88.6879 8.78222 88.8136 8.48768C89.0317 7.97528 89.2794 7.47887 89.5572 6.99863C90.837 4.78658 92.6361 3.06713 94.9545 1.84028C97.273 0.61343 99.9531 0 102.995 0C105.962 0 108.615 0.585556 110.952 1.75664C113.289 2.92773 115.097 4.51706 116.377 6.52464C117.657 8.53221 118.297 10.7257 118.297 13.105V13.1608C118.297 13.421 118.222 13.6255 118.074 13.7742C117.926 13.9229 117.722 13.9973 117.462 13.9973H108.726C108.17 13.9973 107.891 13.83 107.891 13.4954C107.891 12.2685 107.456 11.209 106.584 10.3167C105.712 9.42445 104.516 8.97833 102.995 8.97833C101.511 8.97833 100.324 9.47092 99.4337 10.4561C98.5435 11.4413 98.0983 12.7518 98.0983 14.3876V25.5408C98.0983 27.1394 98.6084 28.4407 99.6285 29.4444C100.649 30.4482 101.919 30.9501 103.44 30.9501C104.813 30.9501 105.935 30.5691 106.806 29.8069C107.678 29.0448 108.114 27.9945 108.114 26.6561V25.9312C108.114 25.7453 108.021 25.6523 107.836 25.6523H102.939C102.68 25.6523 102.476 25.578 102.327 25.4293C102.179 25.2806 102.105 25.0761 102.105 24.8159V18.1239C102.105 17.8637 102.179 17.6592 102.327 17.5105C102.476 17.3618 102.68 17.2875 102.939 17.2875H115.826C115.886 17.2772 115.95 17.2721 116.018 17.2721H139.413C139.672 17.2721 139.876 17.3465 140.025 17.4952C140.173 17.6439 140.247 17.8484 140.247 18.1086V25.3582C140.247 25.6184 140.173 25.8229 140.025 25.9716C139.876 26.1203 139.672 26.1947 139.413 26.1947H118.291C118.228 28.7718 117.589 31.0819 116.377 33.125C115.097 35.2813 113.298 36.9543 110.98 38.1439C108.661 39.3336 106 39.9285 102.995 39.9285C99.9531 39.9285 97.273 39.315 94.9545 38.0882C92.6361 36.8613 90.837 35.1326 89.5572 32.9019C88.2774 30.6713 87.6375 28.1061 87.6375 25.2062V19.7395C87.6375 19.4039 87.4177 19.1081 87.0969 19.012C86.7761 18.9158 86.4304 19.0422 86.2466 19.3227C85.041 21.163 83.3809 22.5109 81.2665 23.366C81.081 23.4403 81.0254 23.5704 81.0995 23.7563L88.1661 38.4785C88.2403 38.7016 88.2774 38.8317 88.2774 38.8689C88.2774 39.0548 88.2032 39.2035 88.0548 39.315C87.9065 39.4265 87.721 39.4823 87.4984 39.4823H78.1505C77.6683 39.4823 77.353 39.2779 77.2046 38.8689L71.0839 24.7043C71.0097 24.5556 70.8984 24.4813 70.7501 24.4813H68.4131C68.2276 24.4813 68.1349 24.5742 68.1349 24.7601V38.6458C68.1349 38.9061 68.0607 39.1106 67.9123 39.2593C67.7639 39.408 67.5599 39.4823 67.3002 39.4823H58.5087C58.2491 39.4823 58.045 39.408 57.8967 39.2593C57.7483 39.1106 57.6741 38.9061 57.6741 38.6458C57.6741 38.6458 57.6741 35.6202 57.6741 32.6897ZM42.1491 31.1732C43.7071 31.1732 44.9591 30.662 45.905 29.6396C46.8509 28.6173 47.3239 27.251 47.3239 25.5408V14.6107C47.3239 12.9005 46.8509 11.5343 45.905 10.5119C44.9591 9.48952 43.7071 8.97833 42.1491 8.97833C40.6282 8.97833 39.3948 9.48952 38.4489 10.5119C37.503 11.5343 37.03 12.9005 37.03 14.6107V25.5408C37.03 27.251 37.503 28.6173 38.4489 29.6396C39.3948 30.662 40.6282 31.1732 42.1491 31.1732ZM68.4131 9.42446C68.2276 9.42446 68.1349 9.51741 68.1349 9.70329V16.2279C68.1349 16.4138 68.2276 16.5067 68.4131 16.5067H73.6435C74.8305 16.5067 75.795 16.1814 76.5369 15.5308C77.2788 14.8802 77.6497 14.0344 77.6497 12.9935C77.6497 11.9153 77.2788 11.051 76.5369 10.4004C75.795 9.74977 74.8305 9.42446 73.6435 9.42446H68.4131ZM145.756 9.42446H119.347C119.087 9.42446 118.883 9.3501 118.734 9.20139C118.586 9.05268 118.512 8.84821 118.512 8.58797V1.28262C118.512 1.02238 118.586 0.817919 118.734 0.66921C118.883 0.520501 119.087 0.446132 119.347 0.446132H145.756C146.016 0.446132 146.22 0.520501 146.368 0.66921C146.516 0.817919 146.591 1.02238 146.591 1.28262V8.58797C146.591 8.84821 146.516 9.05268 146.368 9.20139C146.22 9.3501 146.016 9.42446 145.756 9.42446ZM145.756 39.4823H119.347C119.087 39.4823 118.883 39.408 118.734 39.2593C118.586 39.1106 118.512 38.9061 118.512 38.6458V31.3405C118.512 31.0803 118.586 30.8758 118.734 30.7271C118.883 30.5784 119.087 30.504 119.347 30.504H145.756C146.016 30.504 146.22 30.5784 146.368 30.7271C146.516 30.8758 146.591 31.0803 146.591 31.3405V38.6458C146.591 38.9061 146.516 39.1106 146.368 39.2593C146.22 39.408 146.016 39.4823 145.756 39.4823Z" fill="var(--fill-0, #E8E4DC)"/>
</svg>
