<svg preserveAspectRatio="none" width="100%" height="100%" overflow="visible" style="display: block;" viewBox="0 0 1267.84 1383.12" fill="none" xmlns="http://www.w3.org/2000/svg">
<g id="Vector 3" filter="url(#filter0_f_0_9)">
<path d="M942.593 352.517C879.128 263.666 743.131 231.027 630.708 227.4C518.284 227.4 451.192 267.292 393.167 303.558C335.142 339.824 262.61 434.115 235.411 570.111C208.211 706.108 255.357 845.731 300.689 936.395C346.021 1027.06 342.395 1139.48 409.486 1153.99C476.578 1168.5 534.603 1086.9 618.014 1086.9C701.426 1086.9 773.957 1150.36 822.916 1139.48C871.875 1128.6 882.754 1070.58 926.273 1007.11C969.792 943.648 1006.06 836.664 1033.26 707.921C1060.46 579.178 1006.06 441.368 942.593 352.517Z" fill="url(#paint0_radial_0_9)"/>
<path d="M942.593 352.517C879.128 263.666 743.131 231.027 630.708 227.4C518.284 227.4 451.192 267.292 393.167 303.558C335.142 339.824 262.61 434.115 235.411 570.111C208.211 706.108 255.357 845.731 300.689 936.395C346.021 1027.06 342.395 1139.48 409.486 1153.99C476.578 1168.5 534.603 1086.9 618.014 1086.9C701.426 1086.9 773.957 1150.36 822.916 1139.48C871.875 1128.6 882.754 1070.58 926.273 1007.11C969.792 943.648 1006.06 836.664 1033.26 707.921C1060.46 579.178 1006.06 441.368 942.593 352.517Z" stroke="var(--stroke-0, black)"/>
</g>
<defs>
<filter id="filter0_f_0_9" x="5.1856e-06" y="0" width="1267.84" height="1383.12" filterUnits="userSpaceOnUse" color-interpolation-filters="sRGB">
<feFlood flood-opacity="0" result="BackgroundImageFix"/>
<feBlend mode="normal" in="SourceGraphic" in2="BackgroundImageFix" result="shape"/>
<feGaussianBlur stdDeviation="113.45" result="effect1_foregroundBlur_0_9"/>
</filter>
<radialGradient id="paint0_radial_0_9" cx="0" cy="0" r="1" gradientUnits="userSpaceOnUse" gradientTransform="translate(633.918 691.558) rotate(-133.408) scale(377.392 377.392)">
<stop stop-color="#A3C1F2"/>
<stop offset="1" stop-color="#1E6AE1"/>
</radialGradient>
</defs>
</svg>
